# xmcd
#
# Track frame offsets: 
#        182
#        18325
#        37207
#
# Disc length: 863 seconds
#
# Revision: 0
# Processed by: cddbd v1.4PL0 Copyright (c) Steve Scherf et al.
# Submitted via: ExactAudioCopy v0.95a3
#
DISCID=1f035d03
DTITLE=Art 'N Soul - Ever Since You Went Away CDS
DYEAR=1996
DGENRE=R&B
TTITLE0=Ever Since You Went Away (original mix)
TTITLE1=Ever Since You Went Away (instrumental version)
TTITLE2=Ever Since You Went Away (album version)
EXTD=
EXTT0=
EXTT1=
EXTT2=
PLAYORDER=
